# xmcd
#
# Track frame offsets:
#	183
#	26053
#	46998
#	65370
#	85435
#	109178
#	129103
#	151020
#	168590
#	186215
#	208280
#	230590
#
# Disc length: 3319 seconds
#
# Revision: 4
# Processed by: cddbd v1.5.2PL0 Copyright (c) Steve Scherf et al.
# Submitted via: EZCDAudioConverter 7.1.5.1
#
DISCID=a00cf50c
DTITLE=苏芮 - 经典
DYEAR=1989
DGENRE=
TTITLE0=一样的月光
TTITLE1=酒矸倘卖呒
TTITLE2=是不是这样
TTITLE3=爱的完结篇
TTITLE4=沉默的母亲
TTITLE5=亲爱的小孩
TTITLE6=风雨情怀
TTITLE7=Changes
TTITLE8=跟着感觉走
TTITLE9=一切为明天
TTITLE10=Without You
TTITLE11=再回首
EXTD=
EXTT0=
EXTT1=
EXTT2=
EXTT3=
EXTT4=
EXTT5=
EXTT6=
EXTT7=
EXTT8=
EXTT9=
EXTT10=
EXTT11=
PLAYORDER=
